Coordinates
version=1
nRows=11
nColumns=46
inDegrees=yes

Units are S.I. units (second, meters, Newtons, ...)
Angles are in degrees.

endheader
time	pelvis_tilt	pelvis_list	pelvis_rotation	pelvis_tx	pelvis_ty	pelvis_tz	bb_angle	bb_tx	bb_ty	bb_tz	hip_flexion_r	hip_adduction_r	hip_rotation_r	knee_angle_r	knee_angle_r_beta	ankle_angle_r	subtalar_angle_r	mtp_angle_r	crank_angle_r	hip_flexion_l	hip_adduction_l	hip_rotation_l	knee_angle_l	knee_angle_l_beta	ankle_angle_l	subtalar_angle_l	mtp_angle_l	crank_angle_l	lumbar_extension	lumbar_bending	lumbar_rotation	arm_flex_r	arm_add_r	arm_rot_r	elbow_flex_r	pro_sup_r	wrist_flex_r	wrist_dev_r	arm_flex_l	arm_add_l	arm_rot_l	elbow_flex_l	pro_sup_l	wrist_flex_l	wrist_dev_l
      0.00500000	     -9.92035825	     -3.63899367	     -3.08720922	      0.18322789	      1.05040505	     -0.30639336	      0.00000000	      0.50000000	      0.00000000	      0.25000000	     85.14473734	     -0.62929929	      2.27768909	    104.15933084	      1.81792327	     21.52906067	     -3.48545173	      0.00000000	      0.00000000	     41.52657476	    -11.34014048	     -1.02787781	     58.27055580	      1.01701306	    -11.41243016	     -9.51637514	      0.00000000	      0.00000000	    -55.89525229	     -0.69749021	      6.47660763	     89.61440211	     -2.39501316	     27.83899032	     19.24102741	     21.01677148	      0.00000000	      0.00000000	     89.18055269	      1.14667501	     27.93278006	     19.69656668	     25.20590876	      0.00000000	      0.00000000
      0.01000000	     -9.93572506	     -3.61015585	     -3.09361515	      0.18322893	      1.05042399	     -0.30640209	      0.00000000	      0.50000000	      0.00000000	      0.25000000	     85.16187288	     -0.63153725	      2.31364679	    104.16213444	      1.81797220	     21.55199000	     -3.44178341	      0.00000000	      0.00000000	     41.52859112	    -11.31087625	     -1.04398120	     58.24191155	      1.01651312	    -11.46589189	     -9.55968760	      0.00000000	      0.00000000	    -55.88847352	     -0.71215715	      6.40811123	     89.61209613	     -2.16292784	     26.45148138	     19.31084476	     21.69513180	      0.00000000	      0.00000000	     89.17176381	      1.19931292	     26.97115207	     19.76095190	     25.73680283	      0.00000000	      0.00000000
      0.01500000	     -9.93278752	     -3.80772202	     -3.06282215	      0.18316289	      1.05044823	     -0.30648577	      0.00000000	      0.50000000	      0.00000000	      0.25000000	     85.09169622	     -0.62121107	      2.08494389	    104.09952128	      1.81687940	     21.52655241	     -3.55852006	      0.00000000	      0.00000000	     41.60678602	    -11.47068074	     -0.87902935	     58.32243961	      1.01791860	    -11.48466749	     -9.50593024	      0.00000000	      0.00000000	    -55.91590006	     -0.48712104	      6.72152730	     89.60753550	     -1.58130956	     19.74367593	     19.70436343	     26.47062833	      0.00000000	      0.00000000	     89.17121061	      1.95855481	     22.10825663	     19.46300404	     29.38401635	      0.00000000	      0.00000000
      0.02000000	    -10.13918690	     -3.60274692	     -3.26740361	      0.18328037	      1.05003027	     -0.30641459	      0.00000000	      0.50000000	      0.00000000	      0.25000000	     85.33142457	     -0.48848018	      2.34249995	    104.16672395	      1.81805230	     21.73720813	     -3.31926538	      0.00000000	      0.00000000	     41.76549755	    -11.41913631	     -1.17604126	     58.34639289	      1.01833666	    -11.48634410	     -9.56940214	      0.00000000	      0.00000000	    -55.67723475	     -0.78984631	      6.56276305	     89.60525646	     -1.47474179	     20.44771816	     19.24936354	     26.27183726	      0.00000000	      0.00000000	     89.16903519	      1.87700679	     22.57626443	     19.06842096	     29.52683644	      0.00000000	      0.00000000
      0.02500000	    -10.09076104	     -3.57073677	     -3.30048781	      0.18322247	      1.05041255	     -0.30619510	      0.00000000	      0.50000000	      0.00000000	      0.25000000	     85.32458678	     -0.51516157	      2.34211275	    104.17542811	      1.81820422	     21.60991524	     -3.38430363	      0.00000000	      0.00000000	     41.64670579	    -11.40290448	     -1.20046555	     58.20990940	      1.01595458	    -11.58696027	     -9.58283654	      0.00000000	      0.00000000	    -55.75177095	     -0.80777348	      6.57955721	     89.60377892	     -1.55514767	     20.82487684	     19.25645659	     26.29422494	      0.00000000	      0.00000000	     89.15756690	      1.85151928	     22.80880838	     19.10582395	     29.76535205	      0.00000000	      0.00000000
      0.03000000	    -10.07796170	     -3.63599440	     -3.29494592	      0.18317896	      1.05042212	     -0.30612658	      0.00000000	      0.50000000	      0.00000000	      0.25000000	     85.30067854	     -0.50636453	      2.26071702	    104.17187344	      1.81814218	     21.60639278	     -3.43581851	      0.00000000	      0.00000000	     41.66772979	    -11.46868677	     -1.15445421	     58.25706215	      1.01677755	    -11.58281833	     -9.53048703	      0.00000000	      0.00000000	    -55.70971473	     -0.78480194	      6.59605533	     89.61387676	     -2.47725268	     28.63979687	     18.82299607	     21.66017961	      0.00000000	      0.00000000	     89.16625409	      1.14402690	     28.06877997	     19.05228052	     27.49676190	      0.00000000	      0.00000000
      0.03500000	     -9.83185303	     -3.74655638	     -3.35882426	      0.18315496	      1.05104019	     -0.30604036	      0.00000000	      0.50000000	      0.00000000	      0.25000000	     84.97014908	     -0.40187435	      2.14897696	    104.10904782	      1.81704567	     21.65840631	     -3.45247253	      0.00000000	      0.00000000	     41.34178082	    -11.60906986	     -1.19095453	     58.14103409	      1.01475248	    -11.75295275	     -9.78705570	      0.00000000	      0.00000000	    -56.13605330	     -0.77343125	      6.78468459	     89.60450107	     -2.64747030	     27.09006045	     19.99687752	     23.11421093	      0.00000000	      0.00000000	     89.08719741	      1.01860406	     26.85395626	     20.46844689	     28.65315456	      0.00000000	      0.00000000
      0.04000000	     -9.94217909	     -3.53244873	     -3.32060371	      0.18321862	      1.05080366	     -0.30610862	      0.00000000	      0.50000000	      0.00000000	      0.25000000	     85.15864378	     -0.52725010	      2.36485084	    104.17549292	      1.81820535	     21.62097456	     -3.28714902	      0.00000000	      0.00000000	     41.45006574	    -11.37747717	     -1.28335855	     58.14458020	      1.01481437	    -11.76861798	     -9.76948942	      0.00000000	      0.00000000	    -55.92336012	     -0.89817600	      6.54324238	     89.61093124	     -2.33210450	     26.06132375	     19.20411661	     23.65306590	      0.00000000	      0.00000000	     89.14335989	      1.27956996	     26.21523855	     19.59719731	     29.05091714	      0.00000000	      0.00000000
      0.04500000	     -9.85539049	     -3.55416211	     -3.32377350	      0.18320344	      1.05094616	     -0.30610396	      0.00000000	      0.50000000	      0.00000000	      0.25000000	     85.05317152	     -0.51306979	      2.37130324	    104.18402756	      1.81835431	     21.74431256	     -3.18212235	      0.00000000	      0.00000000	     41.34157230	    -11.38928102	     -1.26086748	     58.10576062	      1.01413684	    -11.85852107	     -9.87934346	      0.00000000	      0.00000000	    -56.03314291	     -0.88340489	      6.60021607	     89.60937650	     -2.19906627	     24.84814586	     19.26436768	     24.71909083	      0.00000000	      0.00000000	     89.12901239	      1.37728781	     25.31920902	     19.76498739	     29.85517985	      0.00000000	      0.00000000
      0.05000000	    -10.07330026	     -3.63323674	     -3.31050308	      0.18315056	      1.05046621	     -0.30604730	      0.00000000	      0.50000000	      0.00000000	      0.25000000	     85.30583389	     -0.49983638	      2.25720926	    104.18353194	      1.81834566	     21.60057877	     -3.42594736	      0.00000000	      0.00000000	     41.66495070	    -11.47938301	     -1.15007316	     58.24576496	      1.01658037	    -11.61657138	     -9.50741626	      0.00000000	      0.00000000	    -55.71191627	     -0.79185085	      6.59752597	     89.61369130	     -2.48833544	     28.72299361	     18.85621291	     21.40536650	      0.00000000	      0.00000000	     89.16767739	      1.12587999	     28.12380822	     19.08743688	     27.31646498	      0.00000000	      0.00000000
      0.05500000	    -10.08406484	     -3.61848114	     -3.31640507	      0.18316391	      1.05048273	     -0.30601833	      0.00000000	      0.50000000	      0.00000000	      0.25000000	     85.31605567	     -0.49645021	      2.27498816	    104.18137717	      1.81830805	     21.60147007	     -3.40516370	      0.00000000	      0.00000000	     41.65938577	    -11.46592331	     -1.16261463	     58.22690374	      1.01625118	    -11.61995557	     -9.53564131	      0.00000000	      0.00000000	    -55.71394477	     -0.79969579	      6.58572315	     89.61176793	     -2.28759840	     27.24635642	     18.88406775	     22.43331696	      0.00000000	      0.00000000	     89.16192576	      1.23087722	     27.06761322	     19.05878972	     28.03962487	      0.00000000	      0.00000000
